<!DOCTYPE svg PUBLIC "-//W3C//DTD SVG 20010904//EN" "http://www.w3.org/TR/2001/REC-SVG-20010904/DTD/svg10.dtd">
<svg version="1.0" xmlns="http://www.w3.org/2000/svg" width="678px" height="158px" viewBox="0 0 6780 1580" preserveAspectRatio="xMidYMid meet">
<g id="layer101" fill="#323232" stroke="none">
 <path d="M478 1497 c-160 -84 -416 -234 -442 -259 -27 -27 -28 -33 -24 -98 4 -77 21 -107 55 -96 26 8 43 47 43 96 l0 39 203 115 c112 63 211 118 220 122 15 5 249 -120 395 -212 l52 -34 0 -77 -1 -78 -105 -60 c-120 -68 -141 -88 -120 -120 24 -36 55 -29 171 40 61 36 118 74 128 84 14 13 20 40 24 108 9 139 4 154 -70 201 -70 45 -398 231 -439 249 -25 11 -35 9 -90 -20z"/>
 <path d="M1612 1067 c-18 -18 -32 -37 -32 -42 0 -5 12 -21 27 -37 l26 -27 29 24 c26 22 39 25 117 25 104 0 131 -13 131 -65 0 -40 10 -36 -164 -60 -65 -9 -128 -20 -138 -26 -26 -14 -38 -50 -38 -118 0 -55 2 -59 48 -104 l48 -47 125 0 124 0 38 31 c43 35 47 72 11 95 -18 12 -24 11 -54 -11 -30 -22 -44 -25 -116 -25 -68 0 -86 4 -108 21 -21 16 -26 28 -24 53 3 31 4 31 83 44 44 7 110 17 148 23 92 15 109 31 115 106 4 58 3 61 -40 114 l-44 54 -140 3 -140 3 -32 -34z"/>
 <path d="M2300 845 l0 -255 45 0 45 0 0 105 0 105 99 0 98 0 6 -96 c6 -105 11 -114 65 -114 l32 0 0 255 0 255 -50 0 -50 0 0 -105 0 -105 -100 0 -100 0 0 105 0 105 -45 0 -45 0 0 -255z"/>
 <path d="M2960 1084 c0 -21 157 -443 176 -471 12 -19 24 -23 62 -23 l47 0 88 243 c48 133 87 248 87 255 0 6 -10 12 -22 12 -50 0 -64 -11 -84 -63 l-20 -52 -104 0 -105 0 -20 52 c-20 52 -34 63 -82 63 -14 0 -23 -6 -23 -16z m290 -207 c0 -17 -48 -139 -59 -150 -8 -8 -61 120 -61 149 0 11 14 14 60 14 43 0 60 -4 60 -13z"/>
 <path d="M3690 845 l0 -255 153 0 153 0 38 39 c32 33 40 49 44 90 8 84 -3 117 -53 154 -24 17 -44 36 -45 41 0 5 25 42 55 83 77 102 77 103 18 103 -49 0 -51 -1 -99 -62 -84 -108 -115 -138 -140 -138 -24 0 -24 1 -24 100 l0 100 -50 0 -50 0 0 -255z m281 -45 c14 -8 19 -21 19 -50 0 -56 -25 -70 -122 -70 l-78 0 0 65 0 65 81 0 c44 0 89 -5 100 -10z"/>
 <path d="M4400 845 l0 -255 170 0 170 0 0 45 0 45 -125 0 -125 0 0 60 0 60 125 0 125 0 0 45 0 45 -125 0 -125 0 0 60 0 60 125 0 125 0 0 45 0 45 -170 0 -170 0 0 -255z"/>
 <path d="M5043 854 c3 -136 8 -248 10 -251 3 -2 70 -7 149 -10 l144 -6 42 40 c40 38 42 42 42 101 0 50 -4 66 -26 91 l-25 31 26 34 c15 20 29 52 32 73 4 34 0 45 -36 91 l-41 52 -162 0 -161 0 6 -246z m278 146 c27 -15 24 -56 -6 -85 -21 -22 -33 -25 -100 -25 l-75 0 0 60 0 60 81 0 c44 0 89 -5 100 -10z m3 -222 c22 -31 20 -75 -3 -88 -11 -5 -56 -10 -100 -10 l-81 0 0 60 0 60 84 0 c76 0 86 -2 100 -22z"/>
 <path d="M5762 1057 l-42 -43 0 -166 0 -166 54 -46 53 -46 110 0 111 0 51 46 51 46 0 167 0 167 -43 42 -43 42 -130 0 -130 0 -42 -43z m282 -69 c12 -17 16 -50 16 -144 0 -120 0 -123 -26 -143 -38 -30 -160 -30 -198 0 -26 20 -26 23 -26 143 0 165 1 166 125 166 86 0 95 -2 109 -22z"/>
 <path d="M6528 893 l-3 -208 -72 -3 -73 -3 0 -44 0 -45 195 0 195 0 0 45 0 45 -75 0 -75 0 0 210 0 210 -45 0 -45 0 -2 -207z"/>
 <path d="M483 935 c-13 -9 -28 -33 -34 -54 -30 -101 98 -170 166 -89 14 17 25 42 25 59 0 37 -23 84 -45 93 -30 11 -90 6 -112 -9z m35 -118 c2 -10 -3 -17 -12 -17 -18 0 -29 16 -21 31 9 14 29 6 33 -14z"/>
 <path d="M149 829 l-126 -71 -7 -60 c-3 -34 -6 -96 -6 -139 l0 -78 118 -69 c140 -83 381 -217 402 -224 24 -9 456 229 517 285 45 40 42 154 -4 184 -25 16 -26 16 -44 -6 -12 -15 -19 -39 -19 -66 0 -52 12 -43 -243 -190 -176 -100 -190 -107 -215 -96 -15 7 -114 62 -219 123 l-193 110 0 70 c0 38 4 78 10 88 5 10 45 38 87 63 79 46 123 80 123 97 0 10 -40 50 -49 50 -4 0 -63 -32 -132 -71z"/>
 </g>

</svg>