<!DOCTYPE svg PUBLIC "-//W3C//DTD SVG 20010904//EN" "http://www.w3.org/TR/2001/REC-SVG-20010904/DTD/svg10.dtd">
<svg version="1.0" xmlns="http://www.w3.org/2000/svg" width="811px" height="204px" viewBox="0 0 8110 2040" preserveAspectRatio="xMidYMid meet">
<g id="layer101" fill="#fdfdfd" stroke="none">
 <path d="M411 1746 c-173 -101 -321 -192 -328 -202 -8 -11 -13 -49 -13 -105 0 -100 19 -139 69 -139 45 0 61 27 61 103 l0 66 118 68 c167 98 393 229 417 241 22 11 16 14 408 -213 l156 -89 3 -103 3 -103 -142 -82 c-110 -63 -144 -87 -152 -108 -12 -36 5 -71 41 -84 23 -8 47 3 197 89 132 77 172 105 180 125 12 36 14 290 2 322 -7 19 -85 69 -328 209 -187 108 -330 184 -348 186 -23 2 -102 -40 -344 -181z"/>
 <path d="M2249 1303 l-50 -46 38 -39 37 -38 32 31 c31 30 35 31 121 31 48 0 96 -1 106 -1 50 -3 79 -93 35 -110 -13 -4 -86 -16 -162 -26 -77 -9 -150 -21 -162 -25 -34 -13 -44 -41 -44 -125 l0 -76 46 -49 c60 -64 91 -73 237 -69 l116 4 51 50 50 49 -34 35 -35 34 -36 -31 c-35 -32 -37 -32 -140 -32 -101 0 -104 1 -125 27 -13 17 -20 38 -18 57 3 30 5 31 78 42 41 6 100 14 130 18 173 20 180 26 180 149 l0 80 -53 54 -54 53 -147 0 -147 0 -50 -47z"/>
 <path d="M3020 1061 c0 -321 -5 -301 71 -301 l39 0 0 120 0 120 115 0 115 0 0 -121 0 -120 53 3 52 3 3 293 2 292 -55 0 -55 0 0 -120 0 -120 -115 0 -115 0 0 120 0 120 -55 0 -55 0 0 -289z"/>
 <path d="M3760 1341 c0 -7 174 -484 205 -563 11 -27 120 -26 135 1 9 18 210 561 210 569 0 1 -26 2 -57 0 l-58 -3 -24 -67 c-14 -37 -31 -69 -39 -70 -8 -2 -60 -1 -115 2 l-102 5 -25 68 -24 67 -53 0 c-29 0 -53 -4 -53 -9z m340 -241 c0 -24 -69 -202 -74 -190 -33 87 -63 186 -56 190 11 7 130 7 130 0z"/>
 <path d="M4600 1054 l0 -296 176 4 175 3 45 47 44 47 0 85 c0 85 -1 87 -36 126 -20 22 -49 43 -65 48 l-29 7 85 108 c47 59 85 109 85 112 0 10 -138 5 -142 -5 -1 -5 -39 -57 -83 -114 -72 -95 -83 -105 -112 -106 l-33 0 0 115 0 115 -55 0 -55 0 0 -296z m311 -44 c15 -9 19 -22 19 -63 0 -29 -5 -58 -12 -65 -8 -8 -47 -12 -110 -12 l-98 0 0 75 0 75 91 0 c50 0 99 -5 110 -10z"/>
 <path d="M5392 1058 l3 -293 195 0 195 0 3 53 3 52 -140 0 -139 0 -4 50 c-6 88 -11 85 142 85 l135 0 3 53 3 52 -140 0 -139 0 -4 49 c-6 85 -13 80 140 83 l137 3 3 53 3 52 -201 0 -200 0 2 -292z"/>
 <path d="M6122 1058 l3 -293 173 0 173 0 50 52 c47 50 49 54 49 110 0 51 -4 63 -31 96 l-31 37 31 36 c27 30 31 42 31 95 0 57 -2 62 -46 109 l-47 50 -179 0 -178 0 2 -292z m326 170 c21 -21 14 -63 -16 -91 -26 -25 -35 -27 -110 -27 l-82 0 0 65 0 65 98 0 c63 0 102 -4 110 -12z m-16 -245 c32 -30 36 -67 11 -95 -13 -15 -32 -18 -115 -18 l-99 0 2 63 c1 34 4 65 6 70 2 4 41 7 86 7 74 0 83 -2 109 -27z"/>
 <path d="M6933 1297 l-53 -54 0 -184 0 -185 55 -54 55 -55 112 -4 c140 -4 172 5 232 69 l46 49 0 176 0 176 -57 60 -56 59 -140 0 -140 0 -54 -53z m328 -240 c1 -190 3 -187 -129 -187 -84 0 -98 3 -119 22 -22 21 -23 28 -23 169 0 124 3 149 16 160 11 9 53 16 113 19 86 5 98 3 118 -15 21 -19 22 -29 24 -168z"/>
 <path d="M7790 1110 l0 -240 -80 0 -80 0 0 -55 0 -54 220 0 220 1 0 54 0 54 -80 0 -80 0 -2 223 c0 122 -1 230 0 240 2 14 -7 17 -58 17 l-60 0 0 -240z"/>
 <path d="M693 1180 c-64 -33 -91 -110 -61 -175 14 -31 27 -33 21 -2 -3 14 3 29 17 42 29 27 74 11 78 -28 4 -37 -13 -57 -52 -57 l-31 -1 25 -14 c14 -8 43 -14 65 -15 103 0 168 111 115 197 -40 67 -109 87 -177 53z"/>
 <path d="M250 1035 c-80 -47 -153 -94 -162 -106 -15 -18 -18 -43 -18 -176 l0 -155 28 -27 c23 -23 561 -339 633 -371 29 -13 53 -4 184 75 39 23 166 97 283 164 117 68 219 133 227 144 17 25 21 160 5 202 -20 53 -99 51 -118 -4 -5 -14 -8 -49 -8 -78 1 -45 -2 -53 -24 -66 -14 -8 -136 -78 -271 -155 -135 -78 -250 -142 -255 -142 -5 0 -88 45 -184 101 -96 55 -219 126 -273 157 l-98 57 3 100 3 100 97 56 c163 94 178 105 178 139 0 36 -31 70 -62 70 -13 -1 -88 -39 -168 -85z"/>
 </g>

</svg>