<?xml version="1.0" encoding="UTF-8" standalone="no"?>
<!-- Generator: Adobe Illustrator 16.0.0, SVG Export Plug-In . SVG Version: 6.00 Build 0)  -->

<svg
   xmlns:dc="http://purl.org/dc/elements/1.1/"
   xmlns:cc="http://creativecommons.org/ns#"
   xmlns:rdf="http://www.w3.org/1999/02/22-rdf-syntax-ns#"
   xmlns:svg="http://www.w3.org/2000/svg"
   xmlns="http://www.w3.org/2000/svg"
   xmlns:sodipodi="http://sodipodi.sourceforge.net/DTD/sodipodi-0.dtd"
   xmlns:inkscape="http://www.inkscape.org/namespaces/inkscape"
   version="1.1"
   x="0px"
   y="0px"
   width="187.297"
   height="107.377"
   viewBox="0 0 187.297 107.377"
   enable-background="new 0 0 8640 7370.08"
   xml:space="preserve"
   id="svg3764"
   sodipodi:docname="tasti interfaccia.svg"
   inkscape:version="0.92.1 r15371"><metadata
     id="metadata3770"><rdf:RDF><cc:Work
         rdf:about=""><dc:format>image/svg+xml</dc:format><dc:type
           rdf:resource="http://purl.org/dc/dcmitype/StillImage" /><dc:title></dc:title></cc:Work></rdf:RDF></metadata><defs
     id="defs3768" /><sodipodi:namedview
     pagecolor="#ffffff"
     bordercolor="#666666"
     borderopacity="1"
     objecttolerance="10"
     gridtolerance="10"
     guidetolerance="10"
     inkscape:pageopacity="0"
     inkscape:pageshadow="2"
     inkscape:window-width="640"
     inkscape:window-height="480"
     id="namedview3766"
     showgrid="false"
     fit-margin-top="0"
     fit-margin-left="0"
     fit-margin-right="0"
     fit-margin-bottom="-0.2"
     inkscape:zoom="2.3272474"
     inkscape:cx="99.167914"
     inkscape:cy="64.593725"
     inkscape:window-x="0"
     inkscape:window-y="0"
     inkscape:window-maximized="1"
     inkscape:current-layer="Default" /><g
     id="Default"
     transform="translate(-4351.392,-3250.2393)"><path
       d="m 4530.648,3267.979 -5.94,9.9 5.94,1.98 5.94,-1.98 z m 0,11.463 -5.347,-1.782 5.347,-8.911 z"
       id="path3680"
       inkscape:connector-curvature="0"
       style="fill:#5cdbaa" /><path
       d="m 4518.625,3258.391 -8.509,14.182 8.509,2.836 8.509,-2.836 z m 0,16.42 -7.659,-2.553 7.659,-12.765 z"
       id="path3682"
       inkscape:connector-curvature="0"
       style="fill:#5cdbaa" /><polygon
       points="4416.31,3342.648 4416.764,3343.412 4414.575,3344.713 4414.857,3345.188 4417.045,3343.887 4417.5,3344.651 4417.951,3344.383 4416.761,3342.38 "
       id="polygon3684"
       style="fill:#5cdbaa" /><polygon
       points="4414.185,3341.56 4414.954,3342.854 4415.405,3342.586 4414.636,3341.292 4415.277,3340.911 4416.046,3342.205 4416.498,3341.937 4415.447,3340.168 4412.807,3341.736 4413.857,3343.505 4414.309,3343.237 4413.54,3341.943 "
       id="polygon3686"
       style="fill:#5cdbaa" /><path
       d="m 4412.984,3340.656 c 0.173,-0.103 0.346,-0.205 0.519,-0.308 0.151,-0.089 0.219,-0.29 0.147,-0.457 -0.219,-0.512 -0.438,-1.025 -0.657,-1.538 -0.02,-0.042 0,-0.095 0.037,-0.118 0.084,-0.05 0.168,-0.1 0.253,-0.151 0.02,-0.011 0.044,-0.015 0.07,-0.01 0.082,0.021 0.164,0.042 0.246,0.062 0.025,0.01 0.042,0.018 0.057,0.042 0.178,0.299 0.356,0.599 0.534,0.898 0.014,0.024 0.016,0.044 0.01,0.07 -0.036,0.141 -0.072,0.282 -0.108,0.423 0.169,0.042 0.339,0.084 0.509,0.126 0.045,-0.179 0.091,-0.357 0.137,-0.536 0.022,-0.088 0.01,-0.172 -0.035,-0.247 -0.219,-0.368 -0.438,-0.736 -0.656,-1.104 -0.045,-0.075 -0.112,-0.126 -0.201,-0.148 -0.173,-0.044 -0.345,-0.088 -0.518,-0.132 -0.088,-0.022 -0.172,-0.01 -0.247,0.034 -0.173,0.103 -0.346,0.205 -0.519,0.308 -0.15,0.089 -0.219,0.29 -0.146,0.457 0.218,0.511 0.436,1.022 0.654,1.534 0.02,0.042 0,0.099 -0.034,0.122 -0.084,0.05 -0.169,0.1 -0.253,0.15 -0.02,0.012 -0.044,0.016 -0.07,0.01 -0.082,-0.021 -0.164,-0.042 -0.246,-0.063 -0.025,-0.01 -0.042,-0.018 -0.057,-0.041 -0.178,-0.3 -0.355,-0.599 -0.534,-0.898 -0.014,-0.024 -0.016,-0.044 -0.01,-0.07 0.036,-0.141 0.072,-0.282 0.107,-0.423 -0.169,-0.042 -0.339,-0.084 -0.509,-0.126 -0.045,0.179 -0.091,0.358 -0.137,0.536 -0.022,0.088 -0.01,0.172 0.035,0.247 0.219,0.368 0.438,0.736 0.656,1.104 0.045,0.075 0.112,0.126 0.201,0.149 0.173,0.044 0.345,0.088 0.518,0.132 0.088,0.023 0.172,0.011 0.247,-0.034 z"
       id="path3688"
       inkscape:connector-curvature="0"
       style="fill:#5cdbaa" /><polygon
       points="4411.011,3336.216 4411.78,3337.51 4412.231,3337.242 4411.462,3335.948 4412.104,3335.567 4412.872,3336.862 4413.323,3336.594 4412.272,3334.824 4409.632,3336.392 4410.683,3338.162 4411.134,3337.894 4410.366,3336.599 "
       id="polygon3690"
       style="fill:#5cdbaa" /><path
       d="m 4411.45,3333.439 c -0.292,-0.491 -0.583,-0.982 -0.875,-1.472 -0.88,0.523 -1.76,1.045 -2.64,1.568 0.094,0.158 0.188,0.316 0.282,0.475 0.347,-0.206 0.694,-0.412 1.041,-0.618 0.057,0.096 0.114,0.193 0.172,0.289 0.016,0.028 0.019,0.058 0,0.088 -0.181,0.459 -0.361,0.918 -0.542,1.377 0.115,0.194 0.23,0.388 0.346,0.582 0.186,-0.478 0.371,-0.956 0.557,-1.434 0.019,0.031 0.038,0.063 0.057,0.095 0.044,0.075 0.11,0.122 0.192,0.143 0.139,0.035 0.277,0.071 0.417,0.106 0.088,0.022 0.168,0.013 0.247,-0.034 0.174,-0.104 0.348,-0.207 0.522,-0.31 0.079,-0.047 0.126,-0.113 0.148,-0.201 0.036,-0.139 0.071,-0.278 0.106,-0.417 0.02,-0.082 0.01,-0.162 -0.034,-0.237 z m -0.541,0.369 c -0.01,0.025 -0.018,0.042 -0.042,0.057 -0.121,0.072 -0.243,0.144 -0.364,0.216 -0.023,0.014 -0.044,0.015 -0.069,0.01 -0.046,-0.012 -0.092,-0.023 -0.139,-0.035 -0.025,-0.01 -0.043,-0.017 -0.057,-0.041 -0.176,-0.297 -0.353,-0.594 -0.529,-0.891 0.232,-0.138 0.464,-0.276 0.697,-0.414 0.176,0.297 0.353,0.594 0.529,0.891 0.014,0.024 0.016,0.044 0.01,0.07 -0.012,0.046 -0.024,0.092 -0.035,0.138 z"
       id="path3692"
       inkscape:connector-curvature="0"
       style="fill:#5cdbaa" /><polygon
       points="4456.182,3342.648 4456.636,3343.412 4454.447,3344.713 4454.729,3345.188 4456.918,3343.887 4457.372,3344.651 4457.823,3344.383 4456.633,3342.38 "
       id="polygon3694"
       style="fill:#5cdbaa" /><polygon
       points="4454.058,3341.56 4454.826,3342.854 4455.278,3342.586 4454.509,3341.292 4455.15,3340.911 4455.919,3342.205 4456.37,3341.937 4455.319,3340.168 4452.679,3341.736 4453.73,3343.505 4454.181,3343.237 4453.413,3341.943 "
       id="polygon3696"
       style="fill:#5cdbaa" /><path
       d="m 4452.856,3340.656 c 0.173,-0.103 0.346,-0.205 0.519,-0.308 0.15,-0.089 0.219,-0.29 0.146,-0.457 -0.219,-0.512 -0.438,-1.025 -0.656,-1.538 -0.02,-0.042 0,-0.095 0.037,-0.118 0.084,-0.05 0.168,-0.1 0.253,-0.151 0.02,-0.011 0.044,-0.015 0.07,-0.01 0.082,0.021 0.164,0.042 0.246,0.062 0.025,0.01 0.042,0.018 0.057,0.042 0.178,0.299 0.355,0.599 0.534,0.898 0.014,0.024 0.016,0.044 0.01,0.07 -0.036,0.141 -0.072,0.282 -0.108,0.423 0.169,0.042 0.339,0.084 0.509,0.126 0.045,-0.179 0.091,-0.357 0.137,-0.536 0.022,-0.088 0.01,-0.172 -0.035,-0.247 -0.219,-0.368 -0.437,-0.736 -0.656,-1.104 -0.045,-0.075 -0.112,-0.126 -0.201,-0.148 -0.172,-0.044 -0.345,-0.088 -0.518,-0.132 -0.088,-0.022 -0.172,-0.01 -0.247,0.034 -0.173,0.103 -0.346,0.205 -0.519,0.308 -0.15,0.089 -0.219,0.29 -0.146,0.457 0.218,0.511 0.436,1.022 0.654,1.534 0.02,0.042 0.01,0.099 -0.034,0.122 -0.084,0.05 -0.169,0.1 -0.253,0.15 -0.02,0.012 -0.044,0.016 -0.07,0.01 -0.082,-0.021 -0.164,-0.042 -0.246,-0.063 -0.025,-0.01 -0.042,-0.018 -0.057,-0.041 -0.178,-0.3 -0.355,-0.599 -0.534,-0.898 -0.014,-0.024 -0.016,-0.044 -0.01,-0.07 0.036,-0.141 0.072,-0.282 0.107,-0.423 -0.169,-0.042 -0.339,-0.084 -0.509,-0.126 -0.045,0.179 -0.091,0.358 -0.137,0.536 -0.022,0.088 -0.01,0.172 0.035,0.247 0.219,0.368 0.438,0.736 0.656,1.104 0.045,0.075 0.113,0.126 0.201,0.149 0.173,0.044 0.345,0.088 0.518,0.132 0.089,0.023 0.172,0.011 0.247,-0.034 z"
       id="path3698"
       inkscape:connector-curvature="0"
       style="fill:#5cdbaa" /><polygon
       points="4450.883,3336.216 4451.652,3337.51 4452.104,3337.242 4451.334,3335.948 4451.976,3335.567 4452.745,3336.862 4453.196,3336.594 4452.145,3334.824 4449.505,3336.392 4450.556,3338.162 4451.007,3337.894 4450.238,3336.599 "
       id="polygon3700"
       style="fill:#5cdbaa" /><path
       d="m 4451.322,3333.439 c -0.292,-0.491 -0.583,-0.982 -0.875,-1.472 -0.88,0.523 -1.76,1.045 -2.64,1.568 0.094,0.158 0.188,0.316 0.282,0.475 0.347,-0.206 0.694,-0.412 1.041,-0.618 0.057,0.096 0.115,0.193 0.172,0.289 0.016,0.028 0.019,0.058 0,0.088 -0.181,0.459 -0.362,0.918 -0.542,1.377 0.115,0.194 0.23,0.388 0.346,0.582 0.186,-0.478 0.371,-0.956 0.557,-1.434 0.019,0.031 0.038,0.063 0.056,0.095 0.045,0.075 0.11,0.122 0.192,0.143 0.139,0.035 0.277,0.071 0.417,0.106 0.088,0.022 0.168,0.013 0.247,-0.034 0.174,-0.104 0.348,-0.207 0.522,-0.31 0.079,-0.047 0.126,-0.113 0.148,-0.201 0.036,-0.139 0.071,-0.278 0.106,-0.417 0.021,-0.082 0.012,-0.162 -0.033,-0.237 z m -0.541,0.369 c -0.01,0.025 -0.018,0.042 -0.042,0.057 -0.121,0.072 -0.243,0.144 -0.364,0.216 -0.023,0.014 -0.044,0.015 -0.069,0.01 -0.046,-0.012 -0.093,-0.023 -0.139,-0.035 -0.025,-0.01 -0.042,-0.017 -0.057,-0.041 -0.176,-0.297 -0.353,-0.594 -0.529,-0.891 0.232,-0.138 0.464,-0.276 0.697,-0.414 0.176,0.297 0.353,0.594 0.529,0.891 0.014,0.024 0.016,0.044 0.01,0.07 -0.011,0.046 -0.023,0.092 -0.035,0.138 z"
       id="path3702"
       inkscape:connector-curvature="0"
       style="fill:#5cdbaa" /><line
       x1="4447.689"
       y1="3337.5891"
       x2="4447.9019"
       y2="3337.9441"
       id="line3704"
       style="fill:#5cdbaa" /><path
       d="m 4447.902,3337.944 -0.213,-0.355 c -1.181,-1.968 -2.361,-3.936 -3.542,-5.904 -1.181,1.968 -2.362,3.936 -3.542,5.904 -2.147,0.222 -4.167,0.377 -6.1,1.644 -2.597,1.703 0.885,3.113 2.95,3.605 -2.163,3.605 -4.326,7.21 -6.489,10.814 4.394,1.465 8.787,2.929 13.181,4.394 4.393,-1.465 8.787,-2.929 13.18,-4.394 -3.141,-5.235 -6.283,-10.472 -9.425,-15.708 z m -12.553,1.277 c 1.61,-0.972 3.285,-1.088 5.043,-1.277 -0.801,1.335 -1.602,2.67 -2.403,4.004 -1.624,-0.344 -4.807,-1.419 -2.64,-2.727 z m 8.798,3.292 v 1.02 c 0,4.529 0,9.058 0,13.586 -3.955,-1.318 -7.909,-2.636 -11.863,-3.954 2.026,-3.378 4.053,-6.756 6.08,-10.134 0.828,0.158 1.66,0.269 2.499,0.349 -0.01,0.082 -0.015,0.164 -0.021,0.245 -0.034,0.385 -0.067,0.77 -0.101,1.156 0.858,-0.572 1.717,-1.144 2.576,-1.715 -0.747,-0.712 -1.493,-1.424 -2.239,-2.136 -0.034,0.385 -0.067,0.77 -0.101,1.156 -0.01,0.096 -0.017,0.193 -0.025,0.289 -0.683,-0.061 -1.362,-0.143 -2.04,-0.254 0.855,-1.425 1.709,-2.849 2.564,-4.274 0.89,-0.065 1.78,-0.095 2.672,-0.095 0,1.586 0,3.174 0,4.761 z m 0,-5.102 c -0.822,0 -1.642,0.027 -2.461,0.084 0.82,-1.367 1.641,-2.735 2.461,-4.102 0,1.339 0,2.679 0,4.018 z"
       id="path3706"
       inkscape:connector-curvature="0"
       style="fill:#5cdbaa" /><polygon
       points="4409.39,3295.213 4411.071,3293.377 4410.641,3292.648 4407.996,3294.208 4408.269,3294.672 4410.371,3293.432 4408.65,3295.318 4408.94,3295.81 4411.423,3295.217 4409.321,3296.456 4409.595,3296.92 4412.24,3295.36 4411.81,3294.631 "
       id="polygon3708"
       style="fill:#5cdbaa" /><path
       d="m 4413.145,3296.895 -3.223,0.581 0.281,0.476 0.81,-0.141 0.622,1.055 -0.515,0.64 0.286,0.484 2.072,-2.531 z m -1.182,1.558 -0.431,-0.729 1.262,-0.253 z"
       id="path3710"
       inkscape:connector-curvature="0"
       style="fill:#5cdbaa" /><polygon
       points="4415.131,3300.262 4413.926,3300.277 4414.522,3299.231 4414.214,3298.708 4413.348,3300.266 4411.569,3300.267 4411.875,3300.787 4413.078,3300.778 4412.483,3301.818 4412.794,3302.345 4413.658,3300.783 4415.437,3300.781 "
       id="polygon3712"
       style="fill:#5cdbaa" /><polygon
       points="4404.538,3293.51 4398.229,3304.024 4397.717,3303.17 4404.538,3291.802 4417.718,3313.77 4404.538,3318.163 4399.53,3316.494 4400.92,3316.031 4404.538,3317.237 "
       id="polygon3714"
       style="fill:#5cdbaa" /><polygon
       points="4399.585,3296.249 4400.579,3296.847 4400.169,3293.78 4397.267,3294.853 4398.261,3295.451 4394.85,3301.135 4397.988,3298.91 "
       id="polygon3716"
       style="fill:#5cdbaa" /><path
       d="m 4396.854,3302.584 -7.169,11.949 7.169,2.39 7.169,-2.39 z m 0,13.835 -6.453,-2.151 6.453,-10.755 z"
       id="path3718"
       inkscape:connector-curvature="0"
       style="fill:#5cdbaa" /><path
       d="m 4484.457,3253.065 v -0.788 h -0.111 v 25.42 h 0.111 v -1.772 l 11.43,-3.81 z m 0,1.481 10.288,17.146 -10.288,3.429 z"
       id="path3720"
       inkscape:connector-curvature="0"
       style="fill:#5cdbaa" /><path
       d="m 4481.847,3252.277 v 0.788 l -11.43,19.05 11.43,3.81 v 1.772 h 0.11 v -25.42 z m 0,22.844 -10.288,-3.429 10.288,-17.146 z"
       id="path3722"
       inkscape:connector-curvature="0"
       style="fill:#5cdbaa" /><circle
       cx="4356.2251"
       cy="3256.8501"
       r="1.795"
       id="circle3724"
       style="fill:#5cdbaa" /><polyline
       points="4356.999,3254.433 4358.158,3254.433 4356.225,3252.017 4354.292,3254.433 4355.452,3254.433  "
       id="polyline3726"
       style="fill:#5cdbaa" /><polyline
       points="4358.642,3257.623 4358.642,3258.783 4361.058,3256.85 4358.642,3254.917 4358.642,3256.077  "
       id="polyline3728"
       style="fill:#5cdbaa" /><polyline
       points="4355.452,3259.266 4354.292,3259.266 4356.225,3261.683 4358.158,3259.266 4356.999,3259.266  "
       id="polyline3730"
       style="fill:#5cdbaa" /><polyline
       points="4353.809,3256.077 4353.809,3254.917 4351.392,3256.85 4353.809,3258.783 4353.809,3257.623  "
       id="polyline3732"
       style="fill:#5cdbaa" /><line
       x1="4353.8091"
       y1="3257.623"
       x2="4353.8091"
       y2="3256.0769"
       id="line3734"
       style="fill:#5cdbaa" /><line
       x1="4356.999"
       y1="3259.2661"
       x2="4355.4521"
       y2="3259.2661"
       id="line3736"
       style="fill:#5cdbaa" /><line
       x1="4358.6421"
       y1="3256.0769"
       x2="4358.6421"
       y2="3257.623"
       id="line3738"
       style="fill:#5cdbaa" /><path
       d="m 4365.012,3251.578 -13.181,21.967 13.181,4.394 13.18,-4.394 z m 0,25.434 -11.863,-3.955 11.863,-19.772 z"
       id="path3740"
       inkscape:connector-curvature="0"
       style="fill:#5cdbaa" /><polygon
       points="4404.538,3253.286 4398.229,3263.799 4397.717,3262.945 4404.538,3251.578 4417.718,3273.545 4404.538,3277.938 4399.53,3276.269 4400.92,3275.806 4404.538,3277.012 "
       id="polygon3742"
       style="fill:#5cdbaa" /><polygon
       points="4399.585,3256.025 4400.579,3256.623 4400.169,3253.556 4397.267,3254.628 4398.261,3255.227 4394.85,3260.911 4397.988,3258.686 "
       id="polygon3744"
       style="fill:#5cdbaa" /><path
       d="m 4396.854,3262.36 -7.169,11.948 7.169,2.39 7.169,-2.39 z m 0,13.835 -6.453,-2.151 6.453,-10.755 z"
       id="path3746"
       inkscape:connector-curvature="0"
       style="fill:#5cdbaa" /><polygon
       points="4404.538,3333.227 4398.229,3343.741 4397.717,3342.887 4404.538,3331.519 4417.718,3353.487 4404.538,3357.88 4399.53,3356.211 4400.92,3355.748 4404.538,3356.954 "
       id="polygon3748"
       style="fill:#5cdbaa" /><path
       d="m 4396.854,3342.302 -7.169,11.949 7.169,2.39 7.169,-2.39 z m 0,13.834 -6.453,-2.151 6.453,-10.755 z"
       id="path3750"
       inkscape:connector-curvature="0"
       style="fill:#5cdbaa" /><polygon
       points="4395.86,3338.409 4394.859,3337.824 4395.31,3340.885 4398.197,3339.773 4397.196,3339.188 4400.528,3333.459 4397.421,3335.726 "
       id="polygon3752"
       style="fill:#5cdbaa" /><path
       d="m 4530.648,3250.669 -8.041,13.401 8.041,2.68 8.041,-2.68 z m 0,15.516 -7.237,-2.412 7.237,-12.062 z"
       id="path3754"
       inkscape:connector-curvature="0"
       style="fill:#5cdbaa" /><path
       d="m 4443.073,3299.202 c -0.378,0.079 -0.757,0.158 -1.135,0.237 0.795,0.657 1.591,1.313 2.386,1.97 0.466,-0.92 0.932,-1.84 1.398,-2.76 -0.378,0.079 -0.757,0.158 -1.135,0.237 -0.085,0.018 -0.171,0.035 -0.256,0.053 -1.71,-4.705 -6.318,-7.719 -11.314,-7.402 0.036,0.438 0.071,0.876 0.107,1.314 4.334,-0.265 8.341,2.309 9.902,6.361"
       id="path3756"
       inkscape:connector-curvature="0"
       style="fill:#5cdbaa" /></g><g
     id="Default::Default"
     transform="translate(-4351.392,-3250.669)"><path
       d="m 4433.079,3301.912 -0.019,10.973 8.174,4.983 14.608,-15.511 z m 7.678,15.067 -7.186,-4.38 0.016,-9.857 7.564,3.825 z m -5.451,-14.513 17.01,0.332 -10.587,2.916 z"
       id="path3759"
       inkscape:connector-curvature="0"
       style="fill:#5cdbaa" /><path
       d="m 4457.364,3273.167 c -0.143,-0.238 -0.285,-0.476 -0.428,-0.714 -2.283,-3.806 -4.567,-7.611 -6.85,-11.417 -0.632,-1.054 -1.265,-2.107 -1.896,-3.161 -0.168,-0.28 0.324,-0.037 0.49,-0.016 0.195,0.025 0.39,0.051 0.583,0.08 0.371,0.055 0.739,0.119 1.106,0.193 1.073,0.217 2.095,0.398 3.031,1.084 1.648,1.208 -0.64,2.004 -1.95,2.366 0.188,0.286 0.375,0.572 0.562,0.857 1.248,-0.379 3.935,-1.439 2.548,-2.918 -0.818,-0.873 -1.806,-1.107 -2.864,-1.402 -0.765,-0.214 -1.539,-0.369 -2.323,-0.491 -0.425,-0.066 -0.851,-0.122 -1.279,-0.168 -0.227,-0.025 -0.889,-1.221 -0.964,-1.348 -0.588,-0.981 -1.177,-1.961 -1.765,-2.942 -0.294,-0.49 -0.588,-0.98 -0.882,-1.471 -0.208,-0.345 -0.33,0.228 -0.441,0.413 -0.147,0.245 -0.294,0.49 -0.441,0.735 -0.588,0.981 -1.177,1.961 -1.765,2.942 -0.294,0.49 -0.588,0.98 -0.882,1.471 -0.146,0.244 -0.359,0.208 -0.58,0.234 -0.206,0.025 -0.412,0.052 -0.618,0.081 -1.208,0.171 -5.602,0.694 -5.902,2.611 -0.144,0.917 0.471,1.14 1.093,1.503 0.517,0.302 1.061,0.51 1.627,0.692 0.347,0.111 0.698,0.208 1.053,0.294 0.21,0.051 -0.047,0.21 -0.104,0.306 -0.077,0.128 -0.154,0.256 -0.23,0.384 -0.154,0.256 -0.307,0.512 -0.46,0.768 -1.142,1.903 -2.284,3.806 -3.425,5.709 -0.571,0.951 -1.142,1.903 -1.712,2.854 -0.143,0.238 -0.286,0.476 -0.428,0.714 -0.102,0.169 0.122,0.157 0.229,0.193 0.131,0.044 0.263,0.088 0.395,0.132 0.526,0.175 1.053,0.351 1.579,0.526 2.105,0.702 4.21,1.403 6.315,2.105 1.053,0.351 2.105,0.702 3.158,1.053 0.136,0.045 1.401,0.497 1.579,0.438 0.526,-0.176 1.053,-0.351 1.579,-0.526 2.105,-0.702 4.21,-1.403 6.315,-2.105 1.053,-0.351 2.105,-0.702 3.158,-1.052 0.526,-0.176 1.052,-0.351 1.579,-0.526 0.132,-0.044 0.263,-0.088 0.395,-0.132 0.244,-0.087 -0.117,-0.238 -0.185,-0.349 z m -20.113,-11.606 c -0.612,-0.173 -1.198,-0.365 -1.743,-0.716 -1.53,-0.987 0.166,-1.944 1.413,-2.338 1.218,-0.385 2.451,-0.575 3.712,-0.71 -0.649,1.082 -1.298,2.164 -1.947,3.245 -0.185,0.308 -0.168,0.827 -0.726,0.7 -0.237,-0.055 -0.474,-0.115 -0.709,-0.181 z m 7.137,0.804 c 0,0.34 0,0.68 0,1.02 0,2.665 0,5.33 0,7.994 0,1.332 0,2.665 0,3.997 0,0.333 0,0.666 0,0.999 0,0.167 0,0.333 0,0.5 0,0.256 -0.254,0.011 -0.383,-0.031 -0.632,-0.211 -1.264,-0.422 -1.896,-0.632 -2.528,-0.843 -5.056,-1.686 -7.584,-2.528 -0.632,-0.211 -1.264,-0.421 -1.896,-0.632 -0.241,-0.08 0.025,-0.251 0.096,-0.369 0.086,-0.143 0.171,-0.285 0.257,-0.428 0.171,-0.286 0.343,-0.571 0.514,-0.857 0.686,-1.143 1.371,-2.285 2.057,-3.427 0.755,-1.259 1.51,-2.517 2.265,-3.776 0.189,-0.315 0.378,-0.629 0.566,-0.944 0.082,-0.136 0.038,-0.4 0.304,-0.351 0.125,0.024 0.251,0.046 0.378,0.067 0.522,0.089 1.046,0.16 1.573,0.219 0.114,0.013 0.229,0.025 0.343,0.036 0.206,0.021 0.104,0.195 0.094,0.321 -0.03,0.343 -0.06,0.685 -0.09,1.028 -0.024,0.276 0.253,-0.109 0.37,-0.187 0.144,-0.095 0.287,-0.191 0.43,-0.286 0.286,-0.191 0.572,-0.381 0.859,-0.572 0.286,-0.191 0.572,-0.381 0.859,-0.572 0.246,-0.164 -0.167,-0.244 -0.275,-0.348 -0.125,-0.119 -0.249,-0.237 -0.374,-0.356 -0.498,-0.475 -0.995,-0.95 -1.493,-1.425 -0.251,-0.24 -0.078,0.338 -0.093,0.513 -0.018,0.205 -0.036,0.41 -0.054,0.615 -0.033,0.376 -0.336,0.245 -0.584,0.219 -0.479,-0.052 -0.956,-0.114 -1.431,-0.191 -0.309,-0.05 0.12,-0.288 0.201,-0.423 0.097,-0.161 0.193,-0.322 0.29,-0.483 0.193,-0.322 0.386,-0.644 0.58,-0.966 0.386,-0.644 0.772,-1.288 1.159,-1.932 0.17,-0.284 0.329,-0.483 0.698,-0.506 0.259,-0.016 0.519,-0.029 0.779,-0.039 0.256,-0.01 0.512,-0.018 0.769,-0.022 0.162,0 0.714,-0.27 0.714,0.051 0,1.568 0,3.136 0,4.704 z m -0.206,-5.102 c -0.47,0 -0.939,0.014 -1.408,0.035 -0.209,0.01 -0.419,0.021 -0.628,0.034 -0.082,0.01 -0.214,0.01 -0.152,-0.098 0.073,-0.123 0.147,-0.245 0.221,-0.368 0.241,-0.402 0.483,-0.805 0.724,-1.208 0.483,-0.805 0.966,-1.61 1.449,-2.415 0,0.939 0,1.877 0,2.816 0,0.244 0.257,1.202 -0.206,1.204 z"
       id="path3761"
       inkscape:connector-curvature="0"
       style="fill:#5cdbaa" /></g></svg>